<?xml version="1.0" standalone="no"?>
<!DOCTYPE svg PUBLIC "-//W3C//DTD SVG 20010904//EN"
 "http://www.w3.org/TR/2001/REC-SVG-20010904/DTD/svg10.dtd">
<svg version="1.0" xmlns="http://www.w3.org/2000/svg"
 width="260.000000pt" height="260.000000pt" viewBox="0 0 260.000000 260.000000"
 preserveAspectRatio="xMidYMid meet">
<metadata>
Created by potrace 1.11, written by Peter Selinger 2001-2013
</metadata>
<g transform="translate(0.000000,260.000000) scale(0.100000,-0.100000)"
fill="#000000" stroke="none">
<path d="M758 1451 l-3 -390 -365 210 c-201 116 -371 213 -378 216 -9 4 -12
-148 -12 -741 l0 -746 1292 0 c710 0 1289 3 1286 6 -4 3 -262 153 -575 334
l-568 328 -3 393 -3 394 -292 168 c-161 92 -311 179 -334 193 l-43 25 -2 -390z
m235 44 c20 -14 37 -31 37 -37 0 -5 18 6 40 26 47 42 85 47 136 16 50 -31 54
-58 13 -92 -47 -39 -97 -38 -143 3 l-36 31 -37 -31 c-53 -44 -101 -43 -151 4
l-37 35 37 35 c46 43 87 46 141 10z"/>
<path d="M901 1484 c-26 -19 -27 -46 -1 -69 17 -15 24 -16 46 -7 20 10 25 18
22 43 -4 39 -35 55 -67 33z m42 -29 c8 -18 -11 -31 -25 -17 -11 11 -3 32 12
32 4 0 10 -7 13 -15z"/>
<path d="M1121 1484 c-26 -19 -27 -46 -1 -69 39 -35 92 17 62 61 -13 19 -39
23 -61 8z m39 -34 c0 -21 -15 -27 -25 -10 -7 12 2 30 16 30 5 0 9 -9 9 -20z"/>
</g>
</svg>
